<svg width="45" height="30" viewBox="0 0 45 30" fill="none" xmlns="http://www.w3.org/2000/svg">
    <path d="M41.7183 0H10.7808C10.3195 0 9.88453 0.226875 9.62391 0.6075L0.248906 14.2013C-0.0829687 14.6813 -0.0829687 15.3188 0.248906 15.7988L9.62391 29.3925C9.88453 29.7731 10.3195 30 10.7808 30H41.7183C43.5277 30 44.9995 28.5281 44.9995 26.7188V3.28125C44.9995 1.47188 43.5277 0 41.7183 0ZM38.8289 20.3025C39.5564 21.0356 39.5564 22.2206 38.8289 22.9538C38.4652 23.3194 37.9889 23.5031 37.5127 23.5031C37.0364 23.5031 36.5602 23.3194 36.1964 22.9538L30.937 17.6513L25.6758 22.9538C25.312 23.3194 24.8358 23.5031 24.3595 23.5031C23.8833 23.5031 23.407 23.3194 23.0433 22.9538C22.3158 22.2206 22.3158 21.0356 23.0433 20.3025L28.3064 15L23.0452 9.6975C22.3177 8.96438 22.3177 7.77938 23.0452 7.04625C23.7727 6.31313 24.9502 6.31313 25.6758 7.04625L30.937 12.3488L36.1983 7.04625C36.9258 6.31313 38.1033 6.31313 38.8289 7.04625C39.5564 7.77938 39.5564 8.96438 38.8289 9.6975L33.5677 15L38.8289 20.3025Z" fill="white"/>
</svg>
