<svg width="34" height="31" viewBox="0 0 34 31" fill="none" xmlns="http://www.w3.org/2000/svg"><path d="M30.333 3.66683H25.0497L21.9997 0.333496H11.9997L8.94967 3.66683H3.66634C1.83301 3.66683 0.333008 5.16683 0.333008 7.00016V27.0002C0.333008 28.8335 1.83301 30.3335 3.66634 30.3335H30.333C32.1663 30.3335 33.6663 28.8335 33.6663 27.0002V7.00016C33.6663 5.16683 32.1663 3.66683 30.333 3.66683ZM16.9997 8.66683C19.7163 8.66683 22.0997 9.9835 23.633 12.0002H16.9997C14.233 12.0002 11.9997 14.2335 11.9997 17.0002C11.9997 17.5835 12.1163 18.1502 12.2997 18.6668H8.83301C8.58647 17.456 8.61217 16.2055 8.90827 15.0058C9.20436 13.8062 9.76343 12.6873 10.545 11.7303C11.3266 10.7732 12.3112 10.0019 13.4275 9.47203C14.5439 8.94222 15.764 8.66718 16.9997 8.66683ZM16.9997 25.3335C14.283 25.3335 11.8997 24.0168 10.3663 22.0002H16.9997C19.7663 22.0002 21.9997 19.7668 21.9997 17.0002C21.9997 16.4168 21.883 15.8502 21.6997 15.3335H25.1663C25.4129 16.5443 25.3872 17.7948 25.0911 18.9945C24.795 20.1941 24.2359 21.313 23.4543 22.2701C22.6727 23.2271 21.6881 23.9985 20.5718 24.5283C19.4555 25.0581 18.2353 25.3331 16.9997 25.3335Z" fill="#333333"/></svg>