<svg width="34" height="32" viewBox="0 0 34 32" fill="none" xmlns="http://www.w3.org/2000/svg"><path d="M13.4002 20.6133C13.4002 18.6267 15.0202 17.0067 17.0002 17.0067C17.3736 17.0067 17.6669 16.7133 17.6669 16.34C17.6669 15.9733 17.3736 15.6733 17.0002 15.6733C14.2802 15.6733 12.0669 17.8867 12.0669 20.6133C12.0669 20.98 12.3669 21.28 12.7336 21.28C13.1002 21.28 13.4002 20.98 13.4002 20.6133Z" fill="#333333"/><path d="M32.6002 9.82628C32.2135 9.56628 31.7468 9.41295 31.2468 9.41295H24.7068C24.2202 9.41295 23.7868 9.07962 23.6602 8.60628L23.3802 7.56628C23.1002 6.51295 22.1335 5.77295 21.0402 5.77295H12.9668C12.4868 5.77295 12.0402 5.91962 11.6602 6.16628C11.6002 6.20628 11.5468 6.23295 11.4935 6.27295C11.4868 6.27962 11.4802 6.28628 11.4735 6.29295C11.0735 6.60628 10.7668 7.04628 10.6268 7.57295L10.5335 7.91962L10.3468 8.60628C10.2202 9.07962 9.78683 9.41295 9.30016 9.41295H8.00016V7.48628C8.00016 7.11295 7.70683 6.81962 7.3335 6.81962H4.26016C3.8935 6.81962 3.5935 7.11295 3.5935 7.48628V9.41295H2.76016C1.42016 9.41295 0.333496 10.4996 0.333496 11.8396V24.1463H10.2802C9.72016 23.0863 9.40016 21.8863 9.40016 20.6129C9.40016 20.0863 9.4535 19.5729 9.5535 19.0796C9.7735 18.0063 10.2335 17.0196 10.8535 16.1596C12.2402 14.2529 14.4735 13.0063 17.0002 13.0063C21.1935 13.0063 24.6068 16.4196 24.6068 20.6129C24.6068 21.8863 24.2868 23.0863 23.7268 24.1463H33.6668V11.8396C33.6668 10.9996 33.2468 10.2663 32.6002 9.82628ZM28.1802 14.4396H25.8268C25.4535 14.4396 25.1602 14.1396 25.1602 13.7729C25.1602 13.4063 25.4535 13.1063 25.8268 13.1063H28.1802C28.5535 13.1063 28.8468 13.4063 28.8468 13.7729C28.8468 14.1396 28.5535 14.4396 28.1802 14.4396Z" fill="#333333"/><path d="M22.0068 26.32C20.6668 27.4933 18.9202 28.2133 17.0002 28.2133C15.8335 28.2133 14.7335 27.94 13.7468 27.4666C12.7535 26.9933 11.8735 26.3133 11.1802 25.48H0.333496V29.3866C0.333496 30.22 0.760163 30.96 1.40683 31.3933C1.7935 31.6533 2.26016 31.8066 2.76016 31.8066H31.2468C32.5802 31.8066 33.6668 30.72 33.6668 29.3866V25.48H22.8268C22.5802 25.78 22.3002 26.06 22.0068 26.32Z" fill="#333333"/><path d="M12.9135 4.62648C13.0468 4.77315 13.2268 4.84649 13.4135 4.84649C13.5735 4.84649 13.7335 4.79315 13.8601 4.67982C14.1335 4.43315 14.1601 4.01315 13.9135 3.73982L11.7468 1.31315C11.5001 1.03982 11.0801 1.01315 10.8068 1.25982C10.5335 1.50648 10.5068 1.92648 10.7535 2.19982L12.9135 4.62648Z" fill="#333333"/><path d="M20.5935 4.84649C20.7735 4.84649 20.9601 4.77315 21.0935 4.62648L23.2601 2.19982C23.5068 1.92648 23.4802 1.50648 23.2068 1.25982C22.9335 1.01315 22.5135 1.03982 22.2668 1.31315L20.1002 3.73982C19.8535 4.01315 19.8801 4.43315 20.1535 4.67982C20.2735 4.78649 20.4335 4.84649 20.5935 4.84649Z" fill="#333333"/><path d="M17.0002 4.58652C17.3668 4.58652 17.6668 4.28652 17.6668 3.91986V0.85319C17.6668 0.486523 17.3668 0.186523 17.0002 0.186523C16.6335 0.186523 16.3335 0.486523 16.3335 0.85319V3.91986C16.3335 4.29319 16.6335 4.58652 17.0002 4.58652Z" fill="#333333"/></svg>