<svg width="31" height="35" viewBox="0 0 31 35" fill="none" xmlns="http://www.w3.org/2000/svg"><path d="M18.5 3.62435H9.5V0.541016H18.5V3.62435ZM14 27.5202C14 29.4781 14.555 31.2819 15.5 32.8235C15.005 32.916 14.51 32.916 14 32.916C10.4196 32.916 6.9858 31.4542 4.45406 28.8521C1.92232 26.2501 0.5 22.7209 0.5 19.041C0.5 15.3611 1.92232 11.832 4.45406 9.22991C6.9858 6.62784 10.4196 5.16602 14 5.16602C17.18 5.16602 20.105 6.30685 22.43 8.24935L24.56 6.02935C25.325 6.70768 26 7.41685 26.675 8.2031L24.545 10.3923C26.2884 12.6472 27.3195 15.396 27.5 18.2702C26.0183 17.6357 24.4072 17.3869 22.8096 17.5461C21.2119 17.7052 19.6772 18.2673 18.3417 19.1823C17.0061 20.0974 15.9111 21.3373 15.1537 22.7918C14.3963 24.2463 14 25.8705 14 27.5202ZM15.5 9.79102H12.5V20.5827H15.5V9.79102ZM30.5 27.5202C30.5 31.3744 27.5 34.4577 23.75 34.4577C20 34.4577 17 31.3744 17 27.5202C17 23.666 20 20.5827 23.75 20.5827C27.5 20.5827 30.5 23.666 30.5 27.5202Z" fill="#28ACE2"/><path d="M22.0973 25.6364V30H21.1747V26.5121H21.1492L20.1499 27.1385V26.3203L21.2301 25.6364H22.0973ZM24.8454 30.0959C24.4789 30.0945 24.1635 30.0043 23.8993 29.8253C23.6365 29.6463 23.4341 29.3871 23.2921 29.0476C23.1515 28.7081 23.0819 28.2997 23.0833 27.8224C23.0833 27.3466 23.1536 26.9411 23.2942 26.6058C23.4363 26.2706 23.6387 26.0156 23.9015 25.8409C24.1657 25.6648 24.4803 25.5767 24.8454 25.5767C25.2104 25.5767 25.5243 25.6648 25.7871 25.8409C26.0513 26.017 26.2544 26.2727 26.3965 26.608C26.5385 26.9418 26.6088 27.3466 26.6074 27.8224C26.6074 28.3011 26.5364 28.7102 26.3944 29.0497C26.2537 29.3892 26.052 29.6484 25.7892 29.8274C25.5265 30.0064 25.2118 30.0959 24.8454 30.0959ZM24.8454 29.331C25.0954 29.331 25.2949 29.2053 25.4441 28.9538C25.5932 28.7024 25.6671 28.3253 25.6657 27.8224C25.6657 27.4915 25.6316 27.2159 25.5634 26.9957C25.4966 26.7756 25.4015 26.6101 25.2779 26.4993C25.1557 26.3885 25.0115 26.3331 24.8454 26.3331C24.5968 26.3331 24.3979 26.4574 24.2488 26.706C24.0996 26.9545 24.0243 27.3267 24.0229 27.8224C24.0229 28.1577 24.0563 28.4375 24.1231 28.6619C24.1912 28.8849 24.2871 29.0526 24.4107 29.1648C24.5343 29.2756 24.6792 29.331 24.8454 29.331Z" fill="white"/></svg>