<svg width="52" height="48" viewBox="0 0 52 48" fill="none" xmlns="http://www.w3.org/2000/svg"><path d="M15.5751 18.65C18.0748 18.65 20.472 17.6741 22.2396 15.9371C24.0071 14.2 25.0001 11.8441 25.0001 9.3875C25.0001 6.93093 24.0071 4.57498 22.2396 2.83792C20.472 1.10087 18.0748 0.125 15.5751 0.125C13.0754 0.125 10.6781 1.10087 8.91062 2.83792C7.14309 4.57498 6.1501 6.93093 6.1501 9.3875C6.1501 11.8441 7.14309 14.2 8.91062 15.9371C10.6781 17.6741 13.0754 18.65 15.5751 18.65ZM45.3001 11.525C45.3001 13.4147 44.5363 15.2269 43.1766 16.5631C41.817 17.8993 39.9729 18.65 38.0501 18.65C36.1273 18.65 34.2832 17.8993 32.9236 16.5631C31.5639 15.2269 30.8001 13.4147 30.8001 11.525C30.8001 9.63533 31.5639 7.82306 32.9236 6.48687C34.2832 5.15067 36.1273 4.4 38.0501 4.4C39.9729 4.4 41.817 5.15067 43.1766 6.48687C44.5363 7.82306 45.3001 9.63533 45.3001 11.525ZM22.1001 34.325C22.1001 29.4686 24.3476 25.1252 27.8798 22.2496C27.0031 21.7565 26.0102 21.498 25.0001 21.5H6.1501C4.61184 21.5 3.13659 22.1005 2.04888 23.1695C0.961167 24.2385 0.350098 25.6883 0.350098 27.2C0.350098 27.2 0.350098 38.6 15.5751 38.6C18.3388 38.6 20.6008 38.2238 22.451 37.6111C22.217 36.5308 22.0994 35.4294 22.1001 34.325ZM51.1001 34.325C51.1001 37.7264 49.7252 40.9885 47.2778 43.3937C44.8305 45.7988 41.5112 47.15 38.0501 47.15C34.589 47.15 31.2697 45.7988 28.8224 43.3937C26.375 40.9885 25.0001 37.7264 25.0001 34.325C25.0001 30.9236 26.375 27.6615 28.8224 25.2564C31.2697 22.8512 34.589 21.5 38.0501 21.5C41.5112 21.5 44.8305 22.8512 47.2778 25.2564C49.7252 27.6615 51.1001 30.9236 51.1001 34.325ZM38.0501 27.2C37.6655 27.2 37.2967 27.3501 37.0248 27.6174C36.7529 27.8846 36.6001 28.2471 36.6001 28.625V34.325C36.6001 34.7029 36.7529 35.0654 37.0248 35.3326C37.2967 35.5999 37.6655 35.75 38.0501 35.75C38.4347 35.75 38.8035 35.5999 39.0754 35.3326C39.3473 35.0654 39.5001 34.7029 39.5001 34.325V28.625C39.5001 28.2471 39.3473 27.8846 39.0754 27.6174C38.8035 27.3501 38.4347 27.2 38.0501 27.2ZM38.0501 41.8063C38.5308 41.8063 38.9918 41.6186 39.3317 41.2845C39.6716 40.9505 39.8626 40.4974 39.8626 40.025C39.8626 39.5526 39.6716 39.0995 39.3317 38.7655C38.9918 38.4314 38.5308 38.2438 38.0501 38.2438C37.5694 38.2438 37.1084 38.4314 36.7685 38.7655C36.4286 39.0995 36.2376 39.5526 36.2376 40.025C36.2376 40.4974 36.4286 40.9505 36.7685 41.2845C37.1084 41.6186 37.5694 41.8063 38.0501 41.8063Z" fill="#686868"/></svg>