<svg width="34" height="40" viewBox="0 0 34 40" fill="none" xmlns="http://www.w3.org/2000/svg"><path d="M20.8334 27.6667H30.4167V37.25M13.1667 12.3333H3.58339V2.75M31.2179 14.2558C30.1433 11.5958 28.3439 9.29064 26.0245 7.60236C23.705 5.91407 20.9584 4.91035 18.0969 4.70531C15.2354 4.50026 12.3737 5.1021 9.83725 6.44241C7.30075 7.78273 5.19115 9.80777 3.74823 12.2873M2.78223 25.7442C3.85708 28.4037 5.6564 30.7084 7.97568 32.3963C10.295 34.0842 13.0412 35.0877 15.9024 35.2927C18.7635 35.4978 21.6248 34.8961 24.1611 33.5562C26.6973 32.2162 28.8069 30.1917 30.25 27.7127" stroke="#333333" stroke-width="4" stroke-linecap="round" stroke-linejoin="round"/></svg>