<svg width="34" height="35" viewBox="0 0 34 35" fill="none" xmlns="http://www.w3.org/2000/svg">
  <path d="M17.453 1.60348L33.0403 18.6033C33.0404 18.6034 33.0404 18.6034 33.0405 18.6035C33.2063 18.7846 33.2491 19.0471 33.1506 19.2696L33.1494 19.2723C33.0512 19.4964 32.829 19.6418 32.5832 19.6418H28.3332H27.5361V20.4388V33.1888C27.5361 33.5317 27.2594 33.8084 26.9166 33.8084H7.08319C6.74034 33.8084 6.46362 33.5317 6.46362 33.1888V20.4388V19.6418H5.66655H1.41655C1.17067 19.6418 0.948548 19.4964 0.850366 19.2723L0.849325 19.27C0.75124 19.048 0.793094 18.7862 0.960262 18.6028C0.9604 18.6026 0.960538 18.6025 0.960676 18.6023L16.5381 1.60429C16.5382 1.60422 16.5383 1.60415 16.5383 1.60409C16.6548 1.47751 16.8305 1.40218 16.9987 1.40254C17.1652 1.40291 17.3377 1.47745 17.4524 1.60282L17.453 1.60348Z" stroke="#333333" strokeWidth="1.59414"/>
</svg>
